<svg width="36" height="36" viewBox="0 0 36 36" fill="none" xmlns="http://www.w3.org/2000/svg">
<path d="M31.5 1.49999H4.5C3.70435 1.49999 2.94129 1.81606 2.37868 2.37867C1.81607 2.94128 1.5 3.70434 1.5 4.49999V31.5C1.5 32.2956 1.81607 33.0587 2.37868 33.6213C2.94129 34.1839 3.70435 34.5 4.5 34.5H15.75C15.9489 34.5 16.1397 34.421 16.2803 34.2803C16.421 34.1397 16.5 33.9489 16.5 33.75V23.25C16.5 23.0511 16.421 22.8603 16.2803 22.7197C16.1397 22.579 15.9489 22.5 15.75 22.5H14.25C14.0511 22.5 13.8603 22.421 13.7197 22.2803C13.579 22.1397 13.5 21.9489 13.5 21.75V17.25C13.5 17.0511 13.579 16.8603 13.7197 16.7197C13.8603 16.579 14.0511 16.5 14.25 16.5H15.75C15.9489 16.5 16.1397 16.421 16.2803 16.2803C16.421 16.1397 16.5 15.9489 16.5 15.75V14.25C16.5 12.4598 17.2112 10.7429 18.477 9.47702C19.7429 8.21115 21.4598 7.49999 23.25 7.49999H27.75C27.9489 7.49999 28.1397 7.57901 28.2803 7.71966C28.421 7.86031 28.5 8.05108 28.5 8.24999V12.75C28.5 12.9489 28.421 13.1397 28.2803 13.2803C28.1397 13.421 27.9489 13.5 27.75 13.5H23.25C23.0511 13.5 22.8603 13.579 22.7197 13.7197C22.579 13.8603 22.5 14.0511 22.5 14.25V15.75C22.5 15.9489 22.579 16.1397 22.7197 16.2803C22.8603 16.421 23.0511 16.5 23.25 16.5H27.75C27.8582 16.5008 27.9649 16.5249 28.0629 16.5708C28.1609 16.6167 28.2478 16.6833 28.3176 16.766C28.3874 16.8486 28.4385 16.9454 28.4674 17.0496C28.4963 17.1539 28.5023 17.2632 28.485 17.37L27.735 21.87C27.7067 22.0449 27.6173 22.2041 27.4828 22.3194C27.3482 22.4348 27.1772 22.4987 27 22.5H23.25C23.0511 22.5 22.8603 22.579 22.7197 22.7197C22.579 22.8603 22.5 23.0511 22.5 23.25V33.75C22.5 33.9489 22.579 34.1397 22.7197 34.2803C22.8603 34.421 23.0511 34.5 23.25 34.5H31.5C32.2956 34.5 33.0587 34.1839 33.6213 33.6213C34.1839 33.0587 34.5 32.2956 34.5 31.5V4.49999C34.5 3.70434 34.1839 2.94128 33.6213 2.37867C33.0587 1.81606 32.2956 1.49999 31.5 1.49999Z" fill="white" fill-opacity="0.9"/>
</svg>
