<svg width="24" height="22" viewBox="0 0 24 22" fill="none" xmlns="http://www.w3.org/2000/svg">
<g clip-path="url(#clip0)">
<path d="M20.19 14.95H8.58001C8.20649 14.9514 7.84245 14.8325 7.54171 14.611C7.24097 14.3895 7.01948 14.0771 6.91001 13.72L3.06001 1.16H0.580006C0.500556 1.16 0.421885 1.14435 0.348483 1.11394C0.275081 1.08354 0.208386 1.03898 0.152207 0.982797C0.0960272 0.926617 0.0514631 0.859922 0.021059 0.78652C-0.00934506 0.713119 -0.0249939 0.634447 -0.0249939 0.554997C-0.0249939 0.475547 -0.00934506 0.396875 0.021059 0.323473C0.0514631 0.250071 0.0960272 0.183377 0.152207 0.127197C0.208386 0.0710178 0.275081 0.026454 0.348483 -0.00395012C0.421885 -0.0343542 0.500556 -0.0500031 0.580006 -0.0500031H3.91001L8.00001 13.36C8.03616 13.4779 8.10898 13.5813 8.20789 13.655C8.3068 13.7288 8.42664 13.769 8.55001 13.77H20.15C20.279 13.7694 20.4041 13.7258 20.5055 13.6461C20.6069 13.5664 20.6789 13.4552 20.71 13.33L22.86 4.95C22.8918 4.79882 22.9824 4.66648 23.1118 4.58209C23.2412 4.4977 23.3988 4.46817 23.55 4.5C23.7012 4.53182 23.8335 4.6224 23.9179 4.7518C24.0023 4.8812 24.0318 5.03882 24 5.19L21.9 13.61C21.8093 13.9942 21.5906 14.3362 21.2798 14.5797C20.9691 14.8232 20.5848 14.9538 20.19 14.95V14.95Z" fill="white"/>
<path d="M10.05 21.95C9.48012 21.9419 8.92517 21.7666 8.45401 21.4459C7.98286 21.1252 7.61625 20.6733 7.39968 20.1461C7.18311 19.6189 7.12611 19.0397 7.23576 18.4804C7.34542 17.9211 7.61689 17.4064 8.0165 17C8.4161 16.5936 8.92625 16.3135 9.48361 16.1945C10.041 16.0754 10.621 16.1227 11.1518 16.3304C11.6825 16.5381 12.1406 16.897 12.4692 17.3627C12.7977 17.8284 12.9823 18.3803 13 18.95C13.0122 19.343 12.9446 19.7345 12.8013 20.1007C12.658 20.4669 12.442 20.8002 12.1663 21.0806C11.8906 21.361 11.5609 21.5826 11.1972 21.732C10.8334 21.8814 10.4432 21.9556 10.05 21.95V21.95ZM10.05 17.3C9.70256 17.3025 9.36381 17.4089 9.07739 17.6056C8.79096 17.8022 8.56998 18.0802 8.44289 18.4035C8.31581 18.7269 8.28845 19.0809 8.36433 19.42C8.44021 19.759 8.61586 20.0676 8.86866 20.306C9.12146 20.5443 9.43983 20.7015 9.78276 20.7574C10.1257 20.8132 10.4775 20.7651 10.7928 20.6192C11.1082 20.4733 11.3726 20.2364 11.5521 19.9389C11.7316 19.6414 11.818 19.297 11.8 18.95C11.787 18.4946 11.5969 18.0622 11.2701 17.7448C10.9433 17.4273 10.5056 17.2498 10.05 17.25V17.3Z" fill="white"/>
<path d="M19.35 21.95C18.7783 21.9497 18.2194 21.7811 17.743 21.4651C17.2666 21.1492 16.8938 20.6999 16.6712 20.1734C16.4485 19.6469 16.3859 19.0665 16.4911 18.5046C16.5963 17.9427 16.8646 17.4242 17.2626 17.0139C17.6606 16.6036 18.1707 16.3196 18.7291 16.1973C19.2875 16.0751 19.8696 16.12 20.4027 16.3265C20.9357 16.533 21.3961 16.892 21.7264 17.3585C22.0567 17.8251 22.2423 18.3786 22.26 18.95C22.2721 19.3397 22.2057 19.7278 22.0649 20.0913C21.924 20.4548 21.7116 20.7863 21.4402 21.0661C21.1687 21.3459 20.8439 21.5684 20.4848 21.7202C20.1257 21.872 19.7398 21.9502 19.35 21.95ZM19.35 17.3C19.0021 17.3005 18.6624 17.4052 18.3746 17.6007C18.0869 17.7961 17.8643 18.0734 17.7357 18.3966C17.607 18.7198 17.5782 19.0742 17.653 19.4139C17.7277 19.7537 17.9026 20.0632 18.1551 20.3026C18.4075 20.542 18.7259 20.7002 19.0691 20.7568C19.4123 20.8134 19.7647 20.7659 20.0806 20.6203C20.3965 20.4747 20.6616 20.2377 20.8415 19.94C21.0214 19.6422 21.108 19.2974 21.09 18.95C21.077 18.4963 20.8883 18.0654 20.5637 17.7482C20.239 17.4311 19.8039 17.2524 19.35 17.25V17.3Z" fill="white"/>
<path d="M22.84 7.94999H9.47C9.31617 7.94999 9.16865 7.88889 9.05988 7.78012C8.95111 7.67134 8.89 7.52382 8.89 7.36999C8.89 7.21617 8.95111 7.06864 9.05988 6.95987C9.16865 6.8511 9.31617 6.78999 9.47 6.78999H22.84C22.9938 6.78999 23.1414 6.8511 23.2501 6.95987C23.3589 7.06864 23.42 7.21617 23.42 7.36999C23.42 7.52382 23.3589 7.67134 23.2501 7.78012C23.1414 7.88889 22.9938 7.94999 22.84 7.94999V7.94999Z" fill="white"/>
</g>
<defs>
<clipPath id="clip0">
<rect width="24" height="21.9" fill="white"/>
</clipPath>
</defs>
</svg>
