<svg width="36" height="36" viewBox="0 0 36 36" fill="none" xmlns="http://www.w3.org/2000/svg">
<path d="M25.5 34.5H10.5C8.11305 34.5 5.82387 33.5518 4.13604 31.8639C2.44821 30.1761 1.5 27.8869 1.5 25.5V10.5C1.5 8.11304 2.44821 5.82385 4.13604 4.13603C5.82387 2.4482 8.11305 1.49999 10.5 1.49999H25.5C27.8869 1.49999 30.1761 2.4482 31.864 4.13603C33.5518 5.82385 34.5 8.11304 34.5 10.5V25.5C34.5 27.8869 33.5518 30.1761 31.864 31.8639C30.1761 33.5518 27.8869 34.5 25.5 34.5ZM10.5 4.49999C8.9087 4.49999 7.38258 5.13213 6.25736 6.25735C5.13214 7.38257 4.5 8.90869 4.5 10.5V25.5C4.5 27.0913 5.13214 28.6174 6.25736 29.7426C7.38258 30.8678 8.9087 31.5 10.5 31.5H25.5C27.0913 31.5 28.6174 30.8678 29.7426 29.7426C30.8679 28.6174 31.5 27.0913 31.5 25.5V10.5C31.5 8.90869 30.8679 7.38257 29.7426 6.25735C28.6174 5.13213 27.0913 4.49999 25.5 4.49999H10.5Z" fill="white" fill-opacity="0.9"/>
<path d="M18 27C16.22 27 14.4799 26.4722 12.9999 25.4832C11.5198 24.4943 10.3663 23.0887 9.68509 21.4442C9.0039 19.7996 8.82567 17.99 9.17294 16.2442C9.5202 14.4984 10.3774 12.8947 11.636 11.636C12.8947 10.3774 14.4984 9.5202 16.2442 9.17293C17.99 8.82567 19.7996 9.0039 21.4442 9.68508C23.0887 10.3663 24.4943 11.5198 25.4832 12.9999C26.4722 14.4799 27 16.22 27 18C27 20.3869 26.0518 22.6761 24.364 24.364C22.6761 26.0518 20.387 27 18 27ZM18 12C16.8133 12 15.6533 12.3519 14.6666 13.0112C13.6799 13.6705 12.9109 14.6075 12.4567 15.7039C12.0026 16.8003 11.8838 18.0067 12.1153 19.1705C12.3468 20.3344 12.9182 21.4035 13.7574 22.2426C14.5965 23.0818 15.6656 23.6532 16.8295 23.8847C17.9933 24.1162 19.1997 23.9974 20.2961 23.5433C21.3925 23.0892 22.3295 22.3201 22.9888 21.3334C23.6481 20.3467 24 19.1867 24 18C24 16.4087 23.3679 14.8826 22.2426 13.7574C21.1174 12.6321 19.5913 12 18 12Z" fill="white" fill-opacity="0.9"/>
<path d="M27 8.99999C27.8284 8.99999 28.5 8.32841 28.5 7.49999C28.5 6.67156 27.8284 5.99999 27 5.99999C26.1716 5.99999 25.5 6.67156 25.5 7.49999C25.5 8.32841 26.1716 8.99999 27 8.99999Z" fill="white" fill-opacity="0.9"/>
</svg>
