<svg width="36" height="36" viewBox="0 0 36 36" fill="none" xmlns="http://www.w3.org/2000/svg">
<g clip-path="url(#clip0)">
<path d="M35.805 6.64501C35.6924 6.52452 35.5432 6.44453 35.3805 6.41741C35.2178 6.3903 35.0507 6.41757 34.905 6.49501C34.542 6.66123 34.1657 6.79671 33.78 6.90001C34.352 6.1872 34.7846 5.373 35.055 4.50001C35.0911 4.35225 35.0815 4.197 35.0273 4.05487C34.9731 3.91273 34.877 3.79043 34.7517 3.70419C34.6264 3.61794 34.4779 3.57184 34.3257 3.57198C34.1736 3.57213 34.0252 3.61853 33.9 3.70501C32.7048 4.36609 31.4293 4.87025 30.105 5.20501C28.6825 3.78976 26.7566 2.99674 24.75 3.00001C23.1491 3.03522 21.5901 3.5185 20.25 4.39501C17.4 6.00001 16.905 9.70501 17.115 12C14.5002 11.7795 11.9567 11.0334 9.63698 9.80658C7.31728 8.57972 5.26907 6.89727 3.61503 4.86001C3.5476 4.75629 3.4569 4.66974 3.35013 4.60725C3.24336 4.54475 3.12349 4.50803 3.00003 4.50001C2.87689 4.50832 2.7577 4.5469 2.65303 4.61231C2.54837 4.67773 2.46147 4.76796 2.40003 4.87501C1.64289 6.18615 1.27209 7.68474 1.33049 9.19766C1.38888 10.7106 1.87408 12.1761 2.73003 13.425C2.50503 13.275 2.26503 13.095 2.02503 12.9C1.9158 12.7917 1.77592 12.7196 1.62434 12.6935C1.47277 12.6674 1.31682 12.6885 1.17765 12.754C1.03848 12.8195 0.922813 12.9262 0.846321 13.0597C0.76983 13.1931 0.736216 13.3468 0.750034 13.5C0.772455 14.8756 1.12474 16.2256 1.77729 17.4368C2.42984 18.6479 3.36358 19.6847 4.50003 20.46L3.91503 20.295C3.77878 20.2526 3.63326 20.25 3.49555 20.2874C3.35784 20.3248 3.23366 20.4007 3.13759 20.5062C3.04152 20.6117 2.97755 20.7425 2.95318 20.8831C2.92882 21.0237 2.94507 21.1683 3.00003 21.3C3.58144 22.6132 4.44661 23.7812 5.53334 24.7201C6.62007 25.659 7.90134 26.3454 9.28503 26.73C6.73083 28.2055 3.77176 28.8257 0.840034 28.5C0.66814 28.4788 0.494191 28.5177 0.347725 28.6101C0.20126 28.7026 0.0913058 28.8429 0.0365344 29.0072C-0.0182369 29.1715 -0.0144493 29.3497 0.0472541 29.5115C0.108957 29.6734 0.224773 29.8089 0.375034 29.895C3.90209 31.9523 7.91691 33.0246 12 33C14.8506 32.9767 17.6633 32.3451 20.2501 31.1475C22.8369 29.9498 25.1382 28.2136 27 26.055C28.8575 24.0643 30.2985 21.7226 31.2387 19.1674C32.1789 16.6121 32.5992 13.8949 32.475 11.175C33.8118 10.1537 34.9634 8.91064 35.88 7.50001C35.9565 7.36695 35.9903 7.21362 35.9769 7.06073C35.9635 6.90783 35.9035 6.76273 35.805 6.64501Z" fill="white" fill-opacity="0.9"/>
</g>
<defs>
<clipPath id="clip0">
<rect width="36" height="36" fill="white"/>
</clipPath>
</defs>
</svg>
