<svg width="36" height="36" viewBox="0 0 36 36" fill="none" xmlns="http://www.w3.org/2000/svg">
<g clip-path="url(#clip0)">
<path d="M31.395 5.50499L28.5 5.15999C21.5266 4.29708 14.4734 4.29708 7.5 5.15999L4.65 5.51999C3.37305 5.67017 2.19519 6.28242 1.33859 7.24126C0.481984 8.2001 0.00585223 9.43926 0 10.725L0 25.275C0.00448709 26.5539 0.474304 27.7874 1.32172 28.7452C2.16913 29.703 3.3362 30.3197 4.605 30.48L7.455 30.84C10.953 31.2772 14.4748 31.4976 18 31.5C21.5102 31.4957 25.0169 31.2753 28.5 30.84L31.35 30.48C32.6269 30.3298 33.8048 29.7176 34.6614 28.7587C35.518 27.7999 35.9941 26.5607 36 25.275V10.725C35.9992 9.44353 35.531 8.20637 34.6832 7.2454C33.8355 6.28443 32.6664 5.66563 31.395 5.50499ZM25.155 18.63L14.655 25.38C14.5343 25.458 14.3937 25.4996 14.25 25.5C14.0511 25.5 13.8603 25.421 13.7197 25.2803C13.579 25.1397 13.5 24.9489 13.5 24.75V11.25C13.5002 11.1155 13.5366 10.9835 13.6054 10.8679C13.6742 10.7522 13.7728 10.6572 13.8909 10.5928C14.009 10.5284 14.1422 10.4969 14.2767 10.5017C14.4111 10.5065 14.5418 10.5473 14.655 10.62L25.155 17.37C25.2603 17.438 25.3468 17.5313 25.4067 17.6413C25.4667 17.7514 25.4981 17.8747 25.4981 18C25.4981 18.1253 25.4667 18.2486 25.4067 18.3587C25.3468 18.4687 25.2603 18.562 25.155 18.63Z" fill="white" fill-opacity="0.9"/>
</g>
<defs>
<clipPath id="clip0">
<rect width="36" height="36" fill="white"/>
</clipPath>
</defs>
</svg>
